<?xml version="1.0" standalone="no"?>
<!DOCTYPE svg PUBLIC "-//W3C//DTD SVG 20010904//EN"
 "http://www.w3.org/TR/2001/REC-SVG-20010904/DTD/svg10.dtd">
<svg version="1.0" xmlns="http://www.w3.org/2000/svg"
 width="1410.000000pt" height="1047.000000pt" viewBox="0 0 1410.000000 1047.000000"
 preserveAspectRatio="xMidYMid meet">

<g transform="translate(0.000000,1047.000000) scale(0.100000,-0.100000)"
fill="#000000" stroke="none">
<path d="M6755 10445 c-327 -62 -589 -308 -671 -632 -23 -93 -24 -106 -24
-470 0 -413 5 -465 62 -601 83 -201 255 -376 448 -458 36 -15 68 -30 73 -34 4
-3 -39 -12 -95 -19 -352 -43 -849 -177 -1094 -295 -169 -81 -251 -145 -297
-231 l-22 -40 -3 -1112 -2 -1113 -163 0 c-196 0 -272 -11 -354 -51 -74 -35
-149 -114 -190 -197 -26 -52 -28 -67 -28 -167 0 -94 3 -117 23 -160 55 -120
144 -200 261 -235 65 -20 88 -20 2391 -18 l2325 3 67 32 c129 61 214 171 240
310 32 172 -66 359 -226 434 -83 39 -153 49 -353 49 l-163 0 0 1108 c0 1055
-1 1109 -19 1148 -27 59 -73 107 -153 161 -218 144 -744 305 -1215 371 -68 9
-123 20 -123 25 0 4 6 7 14 7 30 0 195 92 258 145 136 112 243 277 290 450 22
76 23 98 23 480 0 384 -1 403 -23 480 -92 329 -347 568 -671 629 -106 20 -481
21 -586 1z"/>
<path d="M2490 8573 c-317 -53 -574 -273 -682 -583 l-33 -95 0 -405 0 -405 32
-95 c49 -143 110 -239 224 -351 l97 -96 -66 -44 c-230 -152 -413 -432 -478
-729 -18 -80 -19 -151 -19 -1290 0 -1309 -2 -1265 57 -1444 110 -341 393 -628
730 -740 185 -62 129 -59 1135 -63 l922 -4 3 -747 c4 -856 0 -811 100 -1012
46 -93 63 -116 153 -205 130 -129 225 -185 396 -232 99 -27 319 -25 423 5 313
89 547 342 611 657 14 71 15 211 12 1310 -3 1391 5 1263 -87 1450 -108 221
-302 380 -545 447 -79 22 -91 23 -827 26 l-748 3 0 852 c0 701 -3 868 -15 943
-50 310 -226 591 -484 772 l-68 48 84 78 c128 120 208 251 255 421 21 76 22
98 22 445 0 347 -1 369 -22 445 -91 326 -340 562 -664 629 -58 12 -130 16
-285 15 -114 -1 -219 -4 -233 -6z"/>
<path d="M11102 8569 c-258 -43 -498 -227 -617 -472 -79 -166 -80 -171 -80
-607 0 -372 1 -388 23 -464 47 -163 158 -334 276 -428 30 -23 55 -46 55 -49 1
-3 -31 -27 -69 -53 -235 -161 -402 -416 -473 -721 -20 -87 -21 -121 -24 -967
l-4 -877 -747 -3 c-732 -4 -748 -4 -822 -25 -309 -90 -530 -314 -612 -623
l-23 -85 0 -1220 c0 -1148 1 -1225 18 -1298 98 -415 461 -689 880 -664 126 8
226 35 337 92 168 87 288 210 370 380 89 183 84 121 87 982 l4 762 922 4 c998
3 951 1 1127 58 403 131 711 489 785 913 23 132 23 2398 0 2532 -31 180 -107
358 -215 503 -66 89 -194 212 -279 269 l-60 40 55 43 c123 97 239 278 286 444
21 76 22 97 23 450 0 323 -2 378 -18 435 -46 170 -111 283 -232 406 -133 134
-278 211 -459 243 -70 13 -438 12 -514 0z"/>
<path d="M332 6100 c-160 -34 -289 -164 -322 -326 -7 -35 -10 -474 -7 -1395 3
-1472 0 -1380 63 -1669 207 -939 950 -1704 1890 -1945 259 -67 361 -77 828
-82 456 -6 499 -2 596 47 69 35 153 123 188 197 24 52 27 69 27 168 0 98 -3
116 -27 167 -31 66 -105 149 -163 184 -100 58 -94 57 -585 65 -440 6 -459 7
-572 32 -310 68 -584 206 -820 411 -284 248 -487 601 -570 992 l-23 109 -5
1360 -5 1360 -22 58 c-43 113 -135 207 -243 248 -59 23 -168 32 -228 19z"/>
<path d="M13585 6096 c-143 -36 -257 -144 -299 -285 -14 -49 -16 -186 -16
-1315 0 -795 -4 -1302 -10 -1371 -59 -621 -424 -1152 -986 -1433 -130 -65
-276 -116 -428 -149 -117 -25 -137 -26 -576 -32 -427 -6 -458 -8 -506 -27
-114 -46 -203 -133 -245 -241 -32 -81 -32 -215 0 -295 42 -108 130 -196 239
-240 55 -22 69 -23 422 -26 485 -4 670 11 941 78 937 234 1676 980 1899 1915
69 288 65 192 65 1735 l0 1395 -27 58 c-53 114 -175 211 -296 236 -66 14 -113
13 -177 -3z"/>
</g>
</svg>
