<?xml version="1.0" standalone="no"?>
<!DOCTYPE svg PUBLIC "-//W3C//DTD SVG 20010904//EN"
 "http://www.w3.org/TR/2001/REC-SVG-20010904/DTD/svg10.dtd">
<svg version="1.0" xmlns="http://www.w3.org/2000/svg"
 width="585.000000pt" height="1032.000000pt" viewBox="0 0 585.000000 1032.000000"
 preserveAspectRatio="xMidYMid meet">

<g transform="translate(0.000000,1032.000000) scale(0.100000,-0.100000)"
fill="#000000" stroke="none">
<path d="M2120 9700 l0 -620 -27 -6 c-568 -127 -1081 -392 -1423 -734 -399
-401 -590 -910 -550 -1467 21 -294 71 -486 191 -728 203 -411 557 -738 1094
-1010 376 -191 758 -325 1362 -479 339 -86 518 -140 693 -206 516 -195 813
-416 961 -715 58 -117 85 -217 99 -363 17 -177 -9 -331 -81 -481 -161 -340
-489 -539 -1024 -623 -121 -19 -180 -22 -440 -22 -325 0 -453 13 -683 69 -487
118 -818 398 -955 807 -23 67 -44 164 -62 281 l-6 37 -631 0 -631 0 7 -77 c63
-722 434 -1315 1068 -1709 258 -160 596 -299 926 -380 l112 -27 0 -624 0 -623
858 2 857 3 3 616 2 616 88 18 c530 109 1032 354 1349 658 382 367 563 807
563 1370 0 383 -64 667 -220 982 -223 448 -583 777 -1165 1065 -321 159 -672
287 -1135 415 -113 31 -279 77 -370 102 -466 128 -837 279 -1085 440 -117 76
-272 228 -324 317 -86 145 -124 337 -103 517 61 515 506 861 1218 944 150 17
461 20 602 4 699 -76 1072 -426 1143 -1071 l13 -118 633 0 634 0 -6 63 c-25
261 -57 424 -121 616 -239 717 -797 1233 -1588 1468 l-126 38 0 627 0 628
-860 0 -860 0 0 -620z"/>
</g>
</svg>
