<?xml version="1.0" standalone="no"?>
<!DOCTYPE svg PUBLIC "-//W3C//DTD SVG 20010904//EN"
 "http://www.w3.org/TR/2001/REC-SVG-20010904/DTD/svg10.dtd">
<svg version="1.0" xmlns="http://www.w3.org/2000/svg"
 width="704.000000pt" height="1053.000000pt" viewBox="0 0 704.000000 1053.000000"
 preserveAspectRatio="xMidYMid meet">

<g transform="translate(0.000000,1053.000000) scale(0.100000,-0.100000)"
fill="#000000" stroke="none">
<path d="M2394 10503 c18 -64 31 -293 31 -563 -1 -344 -14 -466 -81 -731 -104
-413 -265 -774 -777 -1744 -653 -1237 -1098 -2131 -1252 -2515 -155 -386 -255
-784 -297 -1180 -16 -149 -15 -574 0 -715 106 -940 523 -1787 1258 -2554 180
-188 570 -527 552 -481 -3 8 -24 80 -46 160 -114 400 -194 811 -239 1230 -26
235 -25 860 0 1075 99 832 366 1500 835 2090 111 139 389 421 512 519 102 80
230 170 235 164 2 -2 0 -96 -6 -208 -34 -721 111 -1538 407 -2288 145 -367
342 -756 531 -1046 57 -88 71 -105 88 -100 11 3 68 26 126 50 205 86 573 305
928 554 95 67 174 120 176 118 5 -7 -15 -282 -30 -403 -48 -395 -169 -997
-326 -1629 -39 -153 -68 -280 -66 -282 18 -19 517 473 712 701 341 400 622
822 849 1275 262 524 427 1033 493 1520 28 208 26 745 -4 965 -92 670 -293
1293 -634 1955 -87 168 -279 498 -320 550 l-20 25 6 -165 c16 -414 -42 -951
-150 -1388 -190 -767 -564 -1507 -1057 -2093 l-37 -44 53 106 c233 466 346
1318 316 2369 -20 649 -50 989 -120 1340 -237 1184 -945 2230 -2040 3013 -179
127 -572 367 -603 367 -5 0 -6 -8 -3 -17z"/>
</g>
</svg>
