<?xml version="1.0" standalone="no"?>
<!DOCTYPE svg PUBLIC "-//W3C//DTD SVG 20010904//EN"
 "http://www.w3.org/TR/2001/REC-SVG-20010904/DTD/svg10.dtd">
<svg version="1.0" xmlns="http://www.w3.org/2000/svg"
 width="908.000000pt" height="1065.000000pt" viewBox="0 0 908.000000 1065.000000"
 preserveAspectRatio="xMidYMid meet">

<g transform="translate(0.000000,1065.000000) scale(0.100000,-0.100000)"
fill="#000000" stroke="none">
<path d="M3624 10625 c-1260 -125 -2383 -831 -3037 -1910 -414 -682 -616
-1479 -576 -2271 30 -603 166 -1110 455 -1685 387 -773 633 -1572 744 -2411
50 -379 53 -445 60 -1293 5 -634 9 -818 20 -847 21 -60 81 -129 140 -162 l55
-31 2165 0 2165 0 51 27 c59 31 108 84 138 147 20 45 21 61 24 603 l3 557 657
3 c647 4 658 4 730 26 172 53 336 164 435 294 75 100 100 147 139 258 l33 95
3 821 3 821 157 6 c86 4 238 7 337 7 265 0 332 16 429 101 98 86 141 247 99
369 -10 30 -189 376 -397 769 -422 796 -448 848 -504 1011 -83 244 -109 406
-122 784 -5 157 -17 336 -29 426 -81 621 -292 1188 -636 1705 -681 1027 -1782
1679 -3010 1785 -162 13 -570 11 -731 -5z m442 -1040 c64 -26 87 -64 195 -320
108 -257 131 -294 198 -322 71 -30 110 -21 371 87 262 109 312 121 375 87 42
-22 281 -266 294 -300 24 -63 14 -106 -89 -362 -104 -259 -115 -304 -89 -372
13 -35 55 -80 93 -100 16 -8 130 -57 255 -109 322 -135 316 -127 316 -399 0
-274 10 -262 -340 -410 -137 -58 -260 -116 -273 -128 -38 -35 -62 -92 -62
-144 0 -39 21 -99 101 -293 56 -134 104 -261 106 -281 10 -69 -13 -106 -141
-237 -67 -68 -139 -133 -160 -144 -72 -37 -108 -29 -384 81 -179 72 -264 101
-294 101 -53 0 -122 -33 -152 -74 -13 -17 -68 -139 -122 -271 -137 -336 -136
-335 -404 -335 -268 0 -266 -1 -410 340 -80 189 -111 252 -137 277 -41 39
-128 68 -175 58 -17 -4 -135 -50 -262 -102 -127 -53 -250 -98 -272 -101 -75
-8 -110 12 -241 141 -71 69 -131 138 -143 162 -35 72 -29 103 80 372 113 279
117 304 74 391 -33 66 -49 76 -327 191 -120 50 -232 100 -248 112 -61 43 -69
77 -69 289 0 170 2 195 20 230 11 21 32 47 47 58 16 11 136 65 268 121 207 87
245 106 276 141 42 46 64 114 55 167 -3 21 -49 142 -101 268 -53 127 -98 246
-101 266 -11 69 10 106 145 243 131 133 178 165 242 166 23 0 126 -36 285
-101 202 -81 259 -100 300 -100 58 0 115 24 152 64 13 14 70 137 128 273 57
136 114 258 126 271 52 56 78 62 276 63 140 0 191 -3 218 -15z"/>
<path d="M3735 8263 c-316 -50 -574 -282 -657 -591 -32 -118 -29 -297 6 -415
106 -356 401 -578 766 -580 143 0 220 18 359 85 91 44 116 61 196 141 108 108
164 196 208 329 28 86 31 104 31 233 1 164 -12 222 -79 360 -99 203 -277 353
-495 415 -74 21 -265 35 -335 23z"/>
</g>
</svg>
