<?xml version="1.0" standalone="no"?>
<!DOCTYPE svg PUBLIC "-//W3C//DTD SVG 20010904//EN"
 "http://www.w3.org/TR/2001/REC-SVG-20010904/DTD/svg10.dtd">
<svg version="1.0" xmlns="http://www.w3.org/2000/svg"
 width="1113.000000pt" height="1050.000000pt" viewBox="0 0 1113.000000 1050.000000"
 preserveAspectRatio="xMidYMid meet">

<g transform="translate(0.000000,1050.000000) scale(0.100000,-0.100000)"
fill="#000000" stroke="none">
<path d="M2 5248 l3 -5243 3033 -3 3032 -2 0 5245 0 5245 -3035 0 -3035 0 2
-5242z m5058 2617 l0 -1335 -2060 0 -2060 0 0 1335 0 1335 2060 0 2060 0 0
-1335z"/>
<path d="M1592 7868 l3 -683 1408 -3 1407 -2 0 685 0 685 -1410 0 -1410 0 2
-682z"/>
<path d="M6720 9515 l0 -975 655 0 655 0 0 975 0 975 -655 0 -655 0 0 -975z"/>
<path d="M9785 8819 c-249 -31 -490 -152 -676 -338 -190 -190 -305 -421 -339
-681 -5 -41 -10 -243 -10 -447 l0 -373 1175 0 1175 0 0 383 c0 296 -4 403 -15
477 -101 622 -683 1057 -1310 979z"/>
<path d="M6725 7878 c-3 -7 -4 -1781 -3 -3943 l3 -3930 650 0 650 0 0 3940 0
3940 -648 3 c-513 2 -649 0 -652 -10z"/>
<path d="M8763 5808 c4 -281 7 -1154 7 -1940 l0 -1428 1175 0 1175 0 0 1428
c0 786 -3 1659 -7 1940 l-6 512 -1175 0 -1175 0 6 -512z"/>
<path d="M8787 1776 c4 -7 267 -408 583 -890 447 -681 577 -873 587 -863 6 6
262 395 568 862 307 468 566 862 577 878 l19 27 -1171 0 c-993 0 -1170 -2
-1163 -14z"/>
</g>
</svg>
