<?xml version="1.0" standalone="no"?>
<!DOCTYPE svg PUBLIC "-//W3C//DTD SVG 20010904//EN"
 "http://www.w3.org/TR/2001/REC-SVG-20010904/DTD/svg10.dtd">
<svg version="1.0" xmlns="http://www.w3.org/2000/svg"
 width="1046.000000pt" height="1047.000000pt" viewBox="0 0 1046.000000 1047.000000"
 preserveAspectRatio="xMidYMid meet">

<g transform="translate(0.000000,1047.000000) scale(0.100000,-0.100000)"
fill="#000000" stroke="none">
<path d="M6150 9685 l0 -775 -332 0 c-381 0 -425 -6 -557 -71 -162 -80 -288
-244 -322 -417 -17 -88 -7 -251 21 -329 61 -176 210 -319 394 -380 81 -26 83
-27 439 -31 l357 -4 0 -764 0 -764 920 0 920 0 0 490 c0 468 1 492 20 544 43
114 158 191 285 191 118 -1 215 -61 273 -170 l27 -50 3 -502 3 -503 929 0 930
0 0 2155 0 2155 -2155 0 -2155 0 0 -775z"/>
<path d="M10 6610 l0 -1990 689 0 689 0 4 -357 c4 -339 6 -362 27 -428 67
-207 243 -373 449 -421 92 -22 244 -15 332 16 152 51 281 164 350 303 64 130
70 175 70 555 l0 332 695 0 695 0 0 764 0 765 -342 3 c-337 3 -344 3 -396 27
-73 33 -147 116 -168 189 -44 151 29 308 175 376 44 20 64 21 389 24 l342 4 0
914 0 914 -2000 0 -2000 0 0 -1990z"/>
<path d="M6455 5211 c-167 -49 -310 -169 -383 -321 -22 -47 -45 -109 -51 -138
-7 -32 -11 -188 -11 -397 l0 -345 -695 0 -695 0 0 -390 0 -390 64 0 c126 0
317 -48 461 -116 121 -57 226 -132 336 -243 190 -189 296 -392 345 -656 25
-135 15 -376 -20 -507 -116 -435 -456 -775 -883 -884 -54 -14 -134 -27 -178
-30 -44 -3 -90 -7 -102 -10 l-23 -4 0 -385 0 -385 1990 0 1990 0 0 2000 0
2000 -685 0 -685 0 0 348 c0 388 -3 410 -67 542 -70 144 -230 273 -389 314
-83 21 -241 20 -319 -3z"/>
<path d="M10 2010 l0 -2000 2000 0 2000 0 0 695 0 695 348 0 c387 0 411 3 541
66 52 26 96 58 146 108 132 130 192 284 183 466 -13 251 -169 460 -408 548
l-75 27 -367 3 -368 3 0 695 0 694 -389 0 -388 0 -6 -88 c-35 -491 -364 -913
-835 -1073 -243 -83 -551 -80 -794 7 -450 161 -759 558 -810 1042 l-12 112
-383 0 -383 0 0 -2000z"/>
</g>
</svg>
