<?xml version="1.0" standalone="no"?>
<!DOCTYPE svg PUBLIC "-//W3C//DTD SVG 20010904//EN"
 "http://www.w3.org/TR/2001/REC-SVG-20010904/DTD/svg10.dtd">
<svg version="1.0" xmlns="http://www.w3.org/2000/svg"
 width="1329.000000pt" height="1045.000000pt" viewBox="0 0 1329.000000 1045.000000"
 preserveAspectRatio="xMidYMid meet">

<g transform="translate(0.000000,1045.000000) scale(0.100000,-0.100000)"
fill="#000000" stroke="none">
<path d="M6290 10439 c-1557 -41 -3050 -383 -4400 -1008 -327 -152 -737 -373
-1035 -559 -261 -163 -680 -459 -773 -546 -52 -48 -76 -102 -76 -171 -1 -55
33 -150 393 -1120 216 -583 402 -1081 413 -1108 37 -85 116 -137 210 -137 65
0 2381 533 2418 557 43 27 71 57 93 98 22 39 22 49 27 670 l5 630 26 77 c61
178 160 301 342 421 674 445 1424 704 2228 768 212 16 962 7 1134 -15 764 -97
1426 -337 2041 -742 172 -113 245 -188 309 -319 81 -164 78 -133 84 -835 7
-697 2 -652 79 -722 22 -20 55 -40 73 -46 105 -34 2345 -542 2387 -542 71 0
148 42 184 100 15 25 208 533 429 1129 441 1191 425 1140 379 1237 -24 49 -99
114 -317 272 -550 401 -1226 777 -1912 1064 -1113 465 -2311 741 -3596 828
-145 10 -802 32 -850 28 -11 -1 -144 -5 -295 -9z"/>
<path d="M6275 8544 c-22 -2 -96 -9 -165 -15 -379 -34 -784 -133 -1162 -284
-281 -113 -707 -346 -831 -455 -85 -75 -81 -42 -87 -755 -6 -704 -2 -663 -82
-816 -68 -133 -197 -254 -334 -315 -33 -15 -198 -59 -368 -98 l-309 -72 -1209
-1914 c-666 -1053 -1219 -1933 -1229 -1955 -18 -38 -19 -81 -19 -858 0 -671 2
-824 14 -851 22 -52 72 -102 125 -125 l50 -21 5989 2 5989 3 49 30 c30 19 60
49 79 79 l30 49 3 811 c2 581 0 822 -8 850 -6 21 -560 907 -1231 1970 l-1220
1931 -296 68 c-163 37 -323 78 -355 91 -179 73 -332 227 -399 405 -45 119 -48
172 -49 786 l0 580 -24 50 c-29 61 -45 76 -171 157 -558 360 -1151 572 -1825
654 -99 12 -240 17 -525 19 -214 2 -408 1 -430 -1z m735 -1919 c474 -73 906
-261 1270 -551 109 -87 307 -285 394 -394 165 -207 333 -503 421 -744 48 -130
108 -370 131 -521 23 -151 27 -570 6 -710 -63 -415 -196 -773 -411 -1097 -423
-641 -1101 -1060 -1876 -1159 -164 -21 -503 -16 -674 10 -506 77 -946 278
-1329 606 -921 789 -1173 2119 -606 3195 207 391 539 749 924 994 101 64 372
196 494 241 180 66 434 123 646 145 125 13 487 4 610 -15z"/>
<path d="M6475 6169 c-358 -29 -706 -149 -1005 -346 -493 -325 -828 -838 -931
-1423 -27 -150 -36 -421 -20 -571 55 -502 264 -943 616 -1294 322 -323 691
-514 1165 -602 135 -25 553 -25 690 0 460 85 847 285 1163 600 293 293 500
677 581 1077 56 277 56 583 0 860 -212 1046 -1195 1786 -2259 1699z m339
-1439 c207 -53 379 -193 470 -383 54 -111 69 -190 64 -337 -4 -109 -9 -136
-36 -209 -131 -348 -501 -541 -856 -446 -235 63 -420 247 -497 495 -30 96 -32
270 -5 370 65 238 244 426 477 499 84 26 97 28 210 30 66 1 119 -5 173 -19z"/>
<path d="M6572 4265 c-63 -19 -111 -61 -138 -119 -74 -160 34 -338 205 -338
74 -1 133 25 179 78 89 101 81 238 -19 328 -69 62 -140 78 -227 51z"/>
</g>
</svg>
