<?xml version="1.0" standalone="no"?>
<!DOCTYPE svg PUBLIC "-//W3C//DTD SVG 20010904//EN"
 "http://www.w3.org/TR/2001/REC-SVG-20010904/DTD/svg10.dtd">
<svg version="1.0" xmlns="http://www.w3.org/2000/svg"
 width="1030.000000pt" height="1029.000000pt" viewBox="0 0 1030.000000 1029.000000"
 preserveAspectRatio="xMidYMid meet">

<g transform="translate(0.000000,1029.000000) scale(0.100000,-0.100000)"
fill="#000000" stroke="none">
<path d="M4100 10274 c-19 -2 -91 -9 -160 -15 -167 -14 -439 -61 -616 -104
-1138 -281 -2120 -1012 -2719 -2025 -742 -1256 -804 -2824 -164 -4135 418
-858 1103 -1553 1954 -1985 466 -237 948 -381 1495 -447 208 -25 755 -25 960
0 498 62 989 203 1503 431 71 32 130 56 132 54 1 -2 245 -327 542 -724 298
-397 568 -752 600 -790 208 -241 537 -428 876 -496 158 -32 443 -32 593 0 126
27 282 81 384 132 287 144 550 412 679 692 269 582 138 1273 -325 1719 -44 42
-416 328 -841 647 l-762 571 45 83 c258 474 405 1006 455 1641 16 200 7 731
-15 897 -28 213 -55 358 -101 545 -211 858 -687 1642 -1353 2226 -723 634
-1613 1008 -2572 1079 -123 9 -506 11 -590 4z m710 -1049 c815 -114 1537 -497
2065 -1096 472 -535 751 -1177 826 -1894 15 -143 15 -509 0 -650 -70 -665
-315 -1264 -727 -1780 -113 -141 -358 -386 -499 -499 -505 -404 -1113 -655
-1747 -721 -170 -17 -517 -20 -669 -5 -987 99 -1845 595 -2418 1398 -282 395
-486 890 -565 1372 -35 215 -41 291 -40 565 0 212 4 312 18 410 89 651 330
1212 730 1705 90 111 317 341 431 436 539 452 1147 702 1890 778 98 10 595 -3
705 -19z"/>
</g>
</svg>
