<?xml version="1.0" standalone="no"?>
<!DOCTYPE svg PUBLIC "-//W3C//DTD SVG 20010904//EN"
 "http://www.w3.org/TR/2001/REC-SVG-20010904/DTD/svg10.dtd">
<svg version="1.0" xmlns="http://www.w3.org/2000/svg"
 width="1043.000000pt" height="1044.000000pt" viewBox="0 0 1043.000000 1044.000000"
 preserveAspectRatio="xMidYMid meet">

<g transform="translate(0.000000,1044.000000) scale(0.100000,-0.100000)"
fill="#000000" stroke="none">
<path d="M7960 10125 l0 -305 711 -2 711 -3 -1474 -1462 -1473 -1463 -1222
1223 -1223 1222 -777 -776 c-428 -426 -1305 -1300 -1950 -1941 l-1171 -1165
216 -216 217 -215 1734 1725 1734 1725 1223 -1223 1222 -1222 1682 1674 c925
921 1686 1676 1691 1677 5 2 9 -293 9 -692 l0 -696 305 0 305 0 0 1220 0 1220
-1235 0 -1235 0 0 -305z"/>
<path d="M7967 6763 c-4 -3 -7 -1387 -7 -3075 l0 -3068 -305 0 -305 0 0 1850
0 1850 -915 0 -915 0 0 -1850 0 -1850 -305 0 -305 0 0 2460 0 2460 -915 0
-915 0 0 -2460 0 -2460 -305 0 -305 0 0 1545 0 1545 -930 0 -930 0 0 -1545 0
-1545 -302 -2 -303 -3 0 -305 0 -305 5210 0 5210 0 0 305 0 305 -302 3 -303 2
-2 3073 -3 3072 -921 3 c-506 1 -924 -1 -927 -5z"/>
</g>
</svg>
